<svg xmlns="http://www.w3.org/2000/svg" viewBox="0 0 32 32"><rect width="32" height="32" rx="8" fill="#1A1A1A"/><path d="M27.1 4.5l-9.2 6.8 1.7-4L27.1 4.5z" fill="#E17726"/><path d="M4.9 4.5l9.1 6.9-1.6-4.1L4.9 4.5z" fill="#E27625"/><path d="M23.6 21.1l-2.5 3.8 5.3 1.5 1.5-5.2-4.3-.1zM4.1 21.2l1.5 5.2 5.3-1.5-2.5-3.8-4.3.1z" fill="#E27625"/><path d="M10.6 14.1l-1.4 2.2 5 .2-.2-5.4-3.4 3zM21.4 14.1l-3.5-3.1-.1 5.5 5-.2-1.4-2.2z" fill="#E27625"/><path d="M10.9 24.9l3-1.4-2.6-2-.4 3.4zM18.1 23.5l3 1.4-.4-3.4-2.6 2z" fill="#E27625"/><path d="M21.1 24.9l-3-1.4.2 1.7-.1.3 2.9-.6zM10.9 24.9l2.9.6-.1-.3.2-1.7-3 1.4z" fill="#D5BFB2"/><path d="M13.8 19.8l-2.5-.7 1.8-.8.7 1.5zM18.2 19.8l.7-1.5 1.8.8-2.5.7z" fill="#233447"/><path d="M10.9 24.9l.4-3.8-2.9.1 2.5 3.7zM20.7 21.1l.4 3.8 2.5-3.7-2.9-.1zM23.5 16.3l-5 .2.5 2.7.7-1.5 1.8.8 2-2.2zM11.3 18.5l1.8-.8.7 1.5.5-2.7-5-.2 2 2.2z" fill="#CC6228"/><path d="M8.6 16.3l2.1 4.1-.1-2-2-.1zM21.4 18.4l-.1 2 2.1-4.1-2 .1zM13.6 16.5l-.5 2.7.6 3.2.1-4.2-.2-1.7zM18.4 16.5l-.2 1.7.1 4.2.6-3.2-.5-2.7z" fill="#E27625"/><path d="M18.9 19.8l-.6 3.2.4.3 2.6-2 .1-2-2.5.5zM11.3 18.8l.1 2 2.6 2 .4-.3-.6-3.2-2.5-.5z" fill="#F5841F"/><path d="M18.2 25.5l.1-.3-.2-1.7h-4.2l-.2 1.7.1.3-2.9-.6 1 .9h5.2l1-.9-2.9.6z" fill="#C0AC9D"/><path d="M18.1 23.5l-.4-.3h-3.4l-.4.3-.2 1.7.2-.2h3.6l.2.2-.6-1.7z" fill="#161616"/><path d="M27.5 11.4l.8-3.8-1.2-3.1-9.1 6.8 3.5 3 5 1.4 1.1-1.3-.5-.3.8-.7-.6-.5.8-.6-.6-.4zM4.2 7.6l.8 3.8-.5.4.8.6-.6.5.8.7-.5.3 1.1 1.3 5-1.4 3.5-3L5.5 4.5 4.2 7.6z" fill="#763D16"/><path d="M26.5 14.9l-5-1.4 1.4 2.2-2.1 4.1 2.8-.1h4.2l-1.3-4.8zM10.6 13.5l-5 1.4-1.2 4.8h4.2l2.8.1-2.1-4.1 1.3-2.2zM18.4 16.5l.3-5.5-1.6-4.3h-2.2l-1.6 4.3.3 5.5.1 1.7.1 4.2h3.4l.1-4.2.1-1.7z" fill="#F5841F"/></svg>
