<svg xmlns="http://www.w3.org/2000/svg" viewBox="0 0 32 32"><rect width="32" height="32" rx="8" fill="#3B99FC"/><path d="M9.6 12.8c3.5-3.5 9.3-3.5 12.8 0l.4.4c.2.2.2.5 0 .6l-1.4 1.4c-.1.1-.3.1-.4 0l-.6-.6c-2.4-2.4-6.4-2.4-8.8 0l-.6.6c-.1.1-.3.1-.4 0L9.2 13.8c-.2-.2-.2-.5 0-.6l.4-.4zm15.8 3L27 17.4c.2.2.2.5 0 .6l-5.1 5.1c-.1.1-.3.1-.5 0L18 19.7c-.1-.1-.2-.1-.2 0l-3.4 3.4c-.1.1-.3.1-.5 0l-5.1-5.1c-.2-.2-.2-.5 0-.6l1.6-1.6c.2-.2.4-.2.5 0l3.4 3.4c.1.1.2.1.2 0l3.4-3.4c.1-.1.3-.1.5 0l3.4 3.4c.1.1.2.1.2 0l3.4-3.4c.2-.2.4-.2.5 0z" fill="white"/></svg>
