<svg xmlns="http://www.w3.org/2000/svg" viewBox="0 0 32 32" width="32" height="32">
  <rect width="32" height="32" rx="6" fill="#3B99FC"/>
  <!-- WalletConnect double-arc mark -->
  <path d="M9.5 13.5 c3.6-3.6 9.4-3.6 13 0 l0.7 0.7 c0.2 0.2 0.2 0.5 0 0.7 l-2 2 c-0.1 0.1-0.3 0.1-0.4 0 l-1-1 c-2.5-2.5-6.5-2.5-9 0 l-1 1 c-0.1 0.1-0.3 0.1-0.4 0 l-2-2 c-0.2-0.2-0.2-0.5 0-0.7 z"
        fill="#FFFFFF"/>
  <path d="M22.5 18 l1.8 1.8 c0.2 0.2 0.2 0.5 0 0.7 l-7.5 7.5 c-0.2 0.2-0.5 0.2-0.7 0 l-4-4 c-0.1-0.1-0.2-0.1-0.2 0 l-4 4 c-0.2 0.2-0.5 0.2-0.7 0 l-7.5-7.5 c-0.2-0.2-0.2-0.5 0-0.7 l1.8-1.8 c0.2-0.2 0.5-0.2 0.7 0 l4 4 c0.1 0.1 0.2 0.1 0.2 0 l4-4 c0.2-0.2 0.5-0.2 0.7 0 l4 4 c0.1 0.1 0.2 0.1 0.2 0 l4-4 c0.2-0.2 0.5-0.2 0.7 0 z"
        fill="#FFFFFF" transform="translate(0 -2)"/>
</svg>
